<?xml version="1.0" standalone="no"?>
<!DOCTYPE svg PUBLIC "-//W3C//DTD SVG 20010904//EN"
 "http://www.w3.org/TR/2001/REC-SVG-20010904/DTD/svg10.dtd">
<svg version="1.0" xmlns="http://www.w3.org/2000/svg"
 width="250.000000pt" height="387.000000pt" viewBox="0 0 250.000000 387.000000"
 preserveAspectRatio="xMidYMid meet">
<metadata>
Created by potrace 1.16, written by Peter Selinger 2001-2019
</metadata>
<g transform="translate(0.000000,387.000000) scale(0.100000,-0.100000)"
fill="#000000" stroke="none">
<path d="M994 3849 c4 -13 10 -62 13 -109 8 -136 2 -145 -159 -223 -73 -36
-178 -81 -233 -101 -218 -79 -235 -87 -290 -138 -98 -90 -125 -178 -125 -416
0 -127 -5 -181 -25 -282 -14 -69 -30 -190 -36 -270 -10 -127 -15 -153 -41
-210 -54 -116 -100 -354 -97 -498 1 -26 9 18 19 98 26 218 60 350 111 434 14
23 19 50 19 111 0 83 21 248 40 325 6 25 15 144 20 265 15 386 53 444 360 550
159 55 385 162 419 199 32 35 45 119 30 208 -6 38 -16 71 -21 75 -8 4 -9 -2
-4 -18z"/>
<path d="M1480 3833 c-7 -23 -11 -79 -9 -130 4 -81 7 -94 29 -118 30 -32 231
-131 365 -179 200 -73 237 -89 283 -125 97 -77 131 -192 132 -446 0 -119 5
-176 25 -275 15 -73 28 -179 31 -255 5 -121 8 -135 39 -200 49 -101 73 -206
96 -410 23 -214 30 -246 23 -110 -11 230 -52 429 -110 534 -18 33 -24 59 -24
105 0 82 -15 203 -45 359 -20 103 -25 158 -25 290 0 224 -25 313 -110 396 -50
49 -112 80 -275 137 -158 56 -361 153 -394 187 -29 32 -40 135 -22 217 14 63
7 78 -9 23z"/>
<path d="M551 2557 c-28 -34 -131 -537 -131 -640 0 -109 -60 -299 -171 -545
-38 -84 -85 -205 -104 -269 -32 -105 -35 -122 -25 -165 18 -87 3 -522 -20
-584 -20 -52 -30 -23 -30 85 0 109 -11 145 -29 99 -6 -13 -15 -72 -21 -133 -5
-60 -13 -121 -17 -135 -4 -19 -3 -22 6 -14 7 6 19 71 26 144 8 73 17 135 21
139 3 3 3 -29 -1 -71 -9 -99 -1 -148 25 -148 11 0 24 10 31 21 29 56 46 543
20 612 -16 43 35 198 162 487 99 227 146 391 147 517 0 60 26 201 76 423 34
149 54 203 54 150 0 -14 16 -101 34 -195 56 -276 60 -325 46 -530 -13 -200
-26 -294 -64 -467 -63 -286 -81 -522 -66 -836 15 -312 34 -512 46 -499 3 2 -2
83 -11 178 -23 253 -30 609 -16 759 14 145 41 313 75 466 36 158 50 303 50
519 1 185 0 195 -43 410 -24 121 -47 224 -51 228 -4 4 -12 2 -19 -6z"/>
<path d="M1915 2548 c-23 -69 -88 -453 -92 -548 -6 -149 19 -437 52 -581 35
-155 62 -322 76 -464 18 -182 5 -604 -27 -900 -4 -39 -3 -56 4 -50 12 13 29
201 44 492 16 324 -6 578 -77 895 -45 198 -73 532 -56 669 11 86 78 452 88
479 14 35 117 -463 132 -634 12 -138 61 -297 157 -506 104 -230 160 -407 144
-458 -5 -15 -11 -56 -14 -92 -7 -84 19 -482 34 -509 16 -30 48 -27 56 5 4 15
4 65 1 113 -3 47 -2 77 2 66 5 -11 11 -60 15 -110 8 -98 21 -161 36 -170 6 -4
7 3 1 18 -5 14 -15 80 -21 148 -12 119 -22 155 -41 143 -5 -3 -9 -53 -8 -110
1 -107 -3 -126 -22 -107 -26 26 -50 490 -30 585 11 52 10 66 -13 150 -30 110
-50 161 -106 283 -112 241 -167 416 -180 574 -5 60 -14 138 -20 173 -18 104
-92 422 -102 441 -10 20 -27 22 -33 5z"/>
<path d="M1223 763 c-9 -3 -13 -30 -13 -86 0 -91 -13 -255 -35 -452 -26 -222
-26 -232 -16 -210 17 34 52 380 58 563 6 169 6 172 28 172 22 0 22 -3 28 -167
8 -216 50 -594 64 -579 3 2 -4 87 -16 188 -25 217 -41 417 -41 503 0 48 -4 64
-16 69 -18 7 -23 7 -41 -1z"/>
</g>
</svg>
